<svg xmlns="http://www.w3.org/2000/svg"  viewBox="0 0 100 100" width="100px" height="100px" clip-rule="evenodd"><path fill="#ff7daa" fill-rule="evenodd" d="M73.154,76.303c0,0,5.845-8.322,6.749-13.009	c1.076-5.575,0.978-14.965-3.783-19.254c-6.018-5.421-13.364-8.938-13.364-8.938s21.647-1.249,25.657-2.717	c6.025-2.204,8.036-8.409,7.78-10.301c-0.791-5.848-3.845-8.591-7.663-9.546c-3.818-0.955-12.41-0.955-18.137,0	c-5.728,0.955-8.591,0.69-13.364,2.864s-8.591,3.912-8.591,3.912s-5.728-7.731-10.5-10.595S30.3,5.856,26.481,6.811	s-7.948,3.994-9.546,8.591c-2.937,8.451-3.135,17.55-3.135,17.55l-0.76,20.633c0,0-3.592,7.637-3.592,12.41	s2.714,10.035,7.487,14.808c4.773,4.773,13.084,8.705,23.061,9.683c5.701,0.559,19.685-4.031,22.595-5.869	C68.166,81.096,73.154,76.303,73.154,76.303z" clip-rule="evenodd"/><path fill="#fdfcee" fill-rule="evenodd" d="M43.882,57.496c14.738-3.218,28.241,1.215,30.135,9.894	c1.894,8.679-8.534,18.338-23.272,21.556c-14.738,3.218-28.24-1.215-30.134-9.894S29.144,60.714,43.882,57.496z" clip-rule="evenodd"/><path fill="#f7e45b" fill-rule="evenodd" d="M48.806,75.459c1.638-0.287,3.124,0.367,3.315,1.459	c0.191,1.092-0.983,2.212-2.621,2.499c-1.639,0.287-3.124-0.367-3.315-1.459C45.993,76.866,47.168,75.746,48.806,75.459z" clip-rule="evenodd"/><path fill="none" stroke="#000" stroke-linecap="round" stroke-linejoin="round" stroke-miterlimit="10" stroke-width="2" d="M51.071,33.378c13.473,0.156,26.288,7.755,29.261,18.85c3.965,14.797-8.398,30.985-27.59,36.127	c-19.192,5.143-37.993-2.695-41.958-17.492c-2.496-9.315,1.479-19.182,9.556-26.497"/><path fill="none" stroke="#000" stroke-linecap="round" stroke-linejoin="round" stroke-miterlimit="10" d="M53.481,36.381	c1.849,0.218,3.668,0.59,5.429,1.103 M62.53,38.772c7.54,3.037,12.936,8.786,14.931,16.56"/><ellipse cx="47.408" cy="73.359" fill="none" stroke="#000" stroke-linecap="round" stroke-linejoin="round" stroke-miterlimit="10" rx="27.272" ry="16.054" transform="rotate(-12.312 47.407 73.35)"/><path fill="none" stroke="#000" stroke-linecap="round" stroke-linejoin="round" stroke-miterlimit="10" d="M17.473,76.421	c0-4.295,2.978-8.991,6.991-12.518 M27.109,61.85c1.405-0.956,2.875-1.757,4.345-2.35"/><path fill="none" stroke="#000" stroke-linecap="round" stroke-linejoin="round" stroke-miterlimit="10" stroke-width="2" d="M26.035,27.098c0,0,3.545,13.005,17.399,10.595c11.5-2,9.566-13.075,5.326-19.276c-2.417-3.534-10.677-11.44-20.722-11.44	c-2.966,0-6.955,2.058-9.569,6.027c-7.506,11.397-3.344,34.182-3.344,34.182"/><path fill="none" stroke="#000" stroke-linecap="round" stroke-linejoin="round" stroke-miterlimit="10" d="M35.5,33.5	c1.789,1.026,3.908,1.443,7,1c7.825-1.122,6.418-9.132,3.432-13.5"/><path fill="none" stroke="#000" stroke-linecap="round" stroke-linejoin="round" stroke-miterlimit="10" stroke-width="2" d="M61.263,35c5.91-0.094,16.031,0.423,23.914-1.154c8.536-1.707,11.104-6.62,10.785-12.346c-0.279-5-4.179-10.5-13.598-10.5	c-20.724,0-32.222,8.062-32.222,8.062"/><path fill="none" stroke="#000" stroke-linecap="round" stroke-linejoin="round" stroke-miterlimit="10" d="M84.421,30.549	c6.374-1.196,8.293-4.636,8.054-8.646c-0.208-3.502-3.12-7.354-10.155-7.354"/><path fill-rule="evenodd" d="M31.057,69.285c1.663,0,3.013,2.25,3.013,5.022	c0,2.772-1.35,5.022-3.013,5.022c-1.663,0-3.013-2.25-3.013-5.022C28.044,71.535,29.394,69.285,31.057,69.285z" clip-rule="evenodd"/><path fill-rule="evenodd" d="M63.199,63.258c1.663,0,3.013,2.25,3.013,5.022	c0,2.772-1.35,5.022-3.013,5.022s-3.013-2.25-3.013-5.022C60.186,65.508,61.536,63.258,63.199,63.258z" clip-rule="evenodd"/><path fill="none" stroke="#000" stroke-linecap="round" stroke-linejoin="round" stroke-miterlimit="10" d="M48.79,75.332	c1.638-0.287,3.123,0.367,3.315,1.459c0.191,1.092-0.983,2.212-2.622,2.499c-1.638,0.287-3.123-0.367-3.315-1.459	C45.978,76.739,47.152,75.619,48.79,75.332z"/><path fill="none" stroke="#000" stroke-linecap="round" stroke-linejoin="round" stroke-miterlimit="10" d="M46.148,83.338	c3.382,0.485,6.027,0,8.035-2.009"/><path fill="#fff" fill-rule="evenodd" d="M13.418,37.801c0.528-2.349,2.628-4.106,5.135-4.106	c2.905,0,5.263,2.358,5.263,5.263c0,1.314-0.483,2.516-1.28,3.439c2.315,0.552,4.039,2.636,4.039,5.12	c0,2.905-2.358,5.263-5.263,5.263c-1.427,0-2.721-0.569-3.669-1.492c-0.633,2.353-2.783,4.087-5.335,4.087	c-3.049,0-5.524-2.475-5.524-5.524c0-1.081,0.311-2.09,0.849-2.943c-2.12-0.772-3.636-2.807-3.636-5.193	c0-3.049,2.476-5.524,5.524-5.524C11.041,36.191,12.419,36.806,13.418,37.801z" clip-rule="evenodd"/><path fill="none" stroke="#000" stroke-linecap="round" stroke-linejoin="round" stroke-miterlimit="10" stroke-width="2" d="M13.306,37.648c0.528-2.349,2.628-4.106,5.135-4.106c2.905,0,5.263,2.358,5.263,5.263c0,1.314-0.483,2.516-1.28,3.439	c2.315,0.552,4.039,2.636,4.039,5.12c0,2.905-2.358,5.263-5.263,5.263c-1.427,0-2.721-0.569-3.669-1.492	c-0.633,2.353-2.783,4.087-5.335,4.087c-3.049,0-5.524-2.475-5.524-5.524c0-1.081,0.311-2.09,0.849-2.943	c-2.12-0.772-3.636-2.807-3.636-5.193c0-3.049,2.476-5.524,5.524-5.524C10.929,36.038,12.307,36.653,13.306,37.648z"/><path fill="#f7e45b" fill-rule="evenodd" d="M14.099,41.438c1.874-0.502,3.762,0.459,4.214,2.144	c0.452,1.686-0.703,3.462-2.577,3.964c-1.875,0.502-3.763-0.459-4.214-2.144C11.07,43.717,12.225,41.941,14.099,41.438z" clip-rule="evenodd"/><path fill="none" stroke="#000" stroke-linecap="round" stroke-linejoin="round" stroke-miterlimit="10" d="M14.159,41.634	c1.877-0.467,3.768,0.427,4.221,1.995c0.452,1.568-0.704,3.221-2.582,3.688c-1.877,0.467-3.769-0.427-4.221-1.995	C11.125,43.754,12.282,42.101,14.159,41.634z"/></svg>